<?xml version="1.0" encoding="UTF-8"?>
<svg id="Calque_1" data-name="Calque 1" xmlns="http://www.w3.org/2000/svg" viewBox="0 0 433.41 352.65">
  <defs>
    <style>
      .cls-1 {
        fill: #e9ecf5;
      }

      .cls-2 {
        fill: #f4f6fb;
      }

      .cls-3 {
        fill: #fff;
      }

      .cls-4 {
        fill: #283452;
      }
    </style>
  </defs>
  <path class="cls-3" d="M116.05,352.64c-1.51-.15-.39-50.59,11.75-115.08,7.81-41.46,15.22-62.48,17.43-68.56,19.01-52.3,42.57-78.05,52.28-88.05,11-11.33,20.42-17.71,28.48-22.01,18.67-9.96,31.82-9.71,46.5-13.07C319.92,35.01,341.58-3.99,346.69.33c4.98,4.21-11.72,44.57-47.36,68.93-19.28,13.18-28.05,10.7-55.12,24.63-19.24,9.9-41.46,22.29-60.45,44.85-14.58,17.32-21.54,34.09-26.14,46.09-31.21,81.47-39.58,168.02-41.57,167.82Z"/>
  <path class="cls-4" d="M139.36,269.5c3.47-.4,7.03.39,10.7,2.36,12.17,6.02,24.47,11.57,36.89,16.67-.19,1.59-.16,1.4,1.1,1.96,20.96,9.18,48.77,9.29,70.43,2.67,11.21-3.43,30.06-11.92,39.52-18.7,1.31-.94,1.37-2.09,1.48-2.16,1.07-.77,2.43-1.45,4.06-2.05,13.16-8.64,27.88-15.61,43.4-19.06l1.25.95c.59-.07,4.96.02,6.42-.02,19.93-.57,39.42,6.56,55.57,17.82,13.45,9.37,34.58,29.74,15.79,44.59-24.23,19.14-97.86,21.77-127.8,17.6-20.67-2.88-38.65-11.91-59.99-12.79-12.68-.53-28.14,1.14-40.61,3.61-29.49,5.85-52.47,20.61-83.98,14.6-26.83-5.12-79.47-30.47-35.77-57.08,18.18-11.07,40.65-16.24,61.54-10.96Z"/>
  <path class="cls-4" d="M282.18,56.8c-1.27,1.78,4.77,9.6,1.93,11.73l-97.71,62.12,24.03-70.27c-.07-.71-7.89-2.45-9.34-2.92-16.14-5.21-36.42-14.53-48.85-26.18-1.49-1.4-9.42-9.49-4.75-10.36,6.81-1.27,26.19,4.14,34.32,5.42,40,6.32,78.16,5.12,117.79-2.8,9.13-1.82,20.95-5.94,29.85-6.53,12.82-.85,1.3,10.76-2.79,14.56-12.47,11.61-28.68,19.28-44.48,25.23Z"/>
  <path class="cls-4" d="M299.49,272.3l-10.92-31.35h-27.15l7.3-5.86c12.29-12.56,14.21-29.05,11.02-45.78l-5.73-19.47c13.43,12.83,32.87,20.15,51.2,14.02l22.99,68.28c-8.79,1.08-24.62,7.96-32.85,12.22-3.97,2.06-10.12,6.7-13.81,8.09-1.22.46-1.97-.21-2.05-.15Z"/>
  <path class="cls-4" d="M215.51,196.71h43.67c-5.53,14.73-24.58,27.41-40.04,28.55-20.48,1.51-36.85-12.56-45.72-29.85-9.75-19.01.89-24.59,15.26-34.2,15.89-10.63,32.57-20.23,48.66-30.56l-21.83,66.06Z"/>
  <path class="cls-4" d="M139.36,269.5l24.07-68.86c6.41,11.62,15.6,23.52,26.06,31.9,4,3.2,8.66,5.63,12.51,8.81l-15.04,47.19-.91,1.13c-15.76-5.69-30.37-16.04-46.68-20.17Z"/>
  <path class="cls-4" d="M315.68,156.91c-5.99,2.82-11.96,6.21-18.72,6.76-14.13,1.15-24.89-7.24-33.29-17.64-5.69-7.04-10.98-14.99-12.84-23.97l43.34-27.79,21.51,62.64Z"/>
  <path class="cls-2" d="M78.93,290.39c.5-4.28,27.82-6.27,53.49-2.14,29.16,4.7,57.45,17.51,56.34,22.11-1.27,5.25-40.96.13-67.76-5.71-7-1.52-42.66-9.29-42.08-14.26Z"/>
  <path class="cls-2" d="M289.32,305.37c-1.79-3.17,19.6-27.37,52.06-33.52,40.37-7.66,85.91,14.86,84.87,28.53-.98,12.93-44.36,26.64-62.76,12.12-6.58-5.19-4.96-10.04-11.41-14.98-19.93-15.24-60.5,11.84-62.76,7.85Z"/>
  <path class="cls-1" d="M313.57,25.79c-1.14-3.49-34.23,2.85-64.9,17.12-20.7,9.63-28.55,17.41-33.52,24.25-10.39,14.29-14.35,32.95-10.7,34.95,3.43,1.87,12.02-11.75,25.68-25.68,39.11-39.88,84.78-46.57,83.45-50.64Z"/>
  <path class="cls-1" d="M216.93,149.18c-3.19-3.59-22.71,4.2-32.81,20.33-2.7,4.32-9,14.37-6.06,23.89,6.81,22.1,57.31,21.76,57.77,19.61.37-1.72-31.7-2.87-37.44-19.61-6.15-17.94,22.84-39.38,18.54-44.22Z"/>
  <path class="cls-1" d="M290.39,109.95c1.65-.36,5.84,10.21,8.56,22.47,2.8,12.63,4.69,21.17,1.07,23.54-5.28,3.46-21.01-7.11-19.97-13.91.37-2.45,2.67-2.78,5.35-5.71,8.64-9.45,2.94-25.94,4.99-26.39Z"/>
  <path class="cls-1" d="M288.61,188.76c-1.35.67,9.8,15.5,4.28,29.24-4.49,11.18-17.14,14.51-16.4,16.05.87,1.82,19.86.15,25.68-12.12,7.21-15.23-11.96-33.95-13.55-33.16Z"/>
</svg>