<?xml version="1.0" encoding="UTF-8"?>
<svg id="Calque_1" data-name="Calque 1" xmlns="http://www.w3.org/2000/svg" viewBox="0 0 165.38 144.47">
  <defs>
    <style>
      .cls-1 {
        fill: #e89a22;
      }

      .cls-2 {
        fill: #97b28b;
      }

      .cls-3 {
        fill: #e7a8a0;
      }

      .cls-4 {
        fill: #d84758;
      }

      .cls-5 {
        fill: #b9d07b;
      }

      .cls-6 {
        fill: #5d80b5;
      }

      .cls-7 {
        fill: #5d81b5;
      }

      .cls-8 {
        fill: #f6d586;
      }

      .cls-9 {
        fill: #fcfdfc;
      }

      .cls-10 {
        fill: #e2813e;
      }

      .cls-11 {
        fill: #64aed6;
      }

      .cls-12 {
        fill: #f6f6f6;
      }

      .cls-13 {
        fill: #e89921;
      }

      .cls-14 {
        fill: #905b9e;
      }

      .cls-15 {
        fill: #404c68;
      }

      .cls-16 {
        fill: #9c171c;
      }

      .cls-17 {
        fill: #b51d1c;
      }

      .cls-18 {
        fill: #90be55;
      }

      .cls-19 {
        fill: #37588c;
      }

      .cls-20 {
        fill: #f4e3c5;
      }

      .cls-21 {
        fill: #b51d1d;
      }

      .cls-22 {
        fill: #e89a21;
      }

      .cls-23 {
        font-family: Bahnschrift, Bahnschrift;
        font-size: 8.83px;
        font-variation-settings: 'wght' 400, 'wdth' 100;
      }

      .cls-23, .cls-24 {
        fill: #f5b643;
      }

      .cls-25 {
        fill: #fbfbf9;
      }

      .cls-26 {
        fill: #6dced0;
      }

      .cls-27 {
        fill: #a2d8b1;
      }

      .cls-28 {
        fill: #38b5d4;
      }

      .cls-29 {
        fill: #4c4b98;
      }

      .cls-30 {
        fill: #f5b743;
      }

      .cls-31 {
        fill: #050503;
      }

      .cls-32 {
        fill: #b7d07b;
      }

      .cls-33 {
        fill: #65b5df;
      }

      .cls-34 {
        fill: #a7c2d7;
      }

      .cls-35 {
        fill: #f9cd54;
      }

      .cls-36 {
        fill: #9ed6f1;
      }

      .cls-37 {
        fill: #6dced1;
      }

      .cls-38 {
        fill: #6eced0;
      }

      .cls-39 {
        fill: #ebcf9a;
      }

      .cls-40 {
        fill: #fdfdfc;
      }

      .cls-41 {
        fill: #ab1f22;
      }

      .cls-42 {
        fill: #1d1d1b;
      }

      .cls-43 {
        fill: #3d4a68;
      }

      .cls-44 {
        fill: #6dcdd0;
      }

      .cls-45 {
        fill: #6ccdd0;
      }

      .cls-46 {
        fill: #9fd5f1;
      }

      .cls-47 {
        fill: #4c5c65;
      }

      .cls-48 {
        fill: #6dcdd1;
      }

      .cls-49 {
        letter-spacing: -.02em;
      }

      .cls-50 {
        fill: #f4e4c6;
      }

      .cls-51 {
        fill: #6bced0;
      }

      .cls-52 {
        fill: #a2d8b0;
      }

      .cls-53 {
        fill: #34568b;
        font-family: Impact, Impact;
        font-size: 6.1px;
      }

      .cls-54 {
        fill: #c12c2b;
      }

      .cls-55 {
        fill: #61b3df;
      }

      .cls-56 {
        fill: #8c120f;
      }

      .cls-57 {
        fill: #d9453f;
      }

      .cls-58 {
        fill: #a5d7b2;
      }

      .cls-59 {
        fill: #5d81b4;
      }

      .cls-60 {
        fill: #fdfdfd;
      }
    </style>
  </defs>
  <g>
    <path class="cls-19" d="M22.03,20.65c1.41-.18,5.95-.61,6.91.33l.07,19.7-.56.34c-.46.74-1.38,1.04-2.75.89.05,18.59.13,37.19.24,55.8,7.77-1.31,13.92,5.08,13.03,12.76h34.97s.53.56.53.56l.83.45c.98,2.04,2.2,3.96,3.77,5.6l.14.93-.23.59c-14.05.36-28.35.38-42.92.07l-3.15-.38c-.35.54-.76.54-1.12,0-3.09.63-6.06.63-8.92,0-.17,1.47-3.7.07-3.7-.65-.38-10.66-.26-21.33.36-31.98-.83-1.16-.75-3.02-.27-4.3-.31-.23-.22-.74.27-1.56-.38-.54-.57-1,0-1.39-.91-2.7-.75-5.89,0-8.65-.25-.05-.24-.15,0-.28.26-1.42.26-3.23.13-4.75-.78-1.89-.85-4.45-.13-6.4.3-1.39.24-2.92.09-4.35-.61-1.14-1-3.8-.09-4.86.23-1.44.28-2.92.14-4.44-.75-.92-.95-3.2-.14-4.21.19-2.01.39-4.72.06-6.74-.02-.14-.24-.24-.52-.34-.4-3.64.14-7.19.74-10.77.36-1.23.91-1.8,2.23-1.95Z"/>
    <path class="cls-36" d="M143.35,20.37l-.19.56h-43.81l-.34-.56-.72-.73c-3.83-17.01-29.15-17.13-32.88,0l-.71.74c-9.16.88-18.45.83-27.61,0,6.12-1.55,11.7-3.43,16.59-7.54C64.49,3.74,73.91-2.43,89.02.93c8.74,1.94,11.89,6.31,18.82,10.46,7.31,4.38,10.99,2.37,18.64,2.83,5.99.36,12.04,2.67,16.86,6.15Z"/>
    <path class="cls-59" d="M143.35,20.37c1.59.2,1.8.92,2.79,1.67.73,1.01,1,3.75,0,4.46.55,2.78.55,5.59,0,8.37.69,1.6.7,3.15,0,4.74.76,1.84.77,3.74,0,5.58.7.78.7,1.46,0,2.23.63,1.73.64,3.7.41,5.53-.69,1.17-.78,2.73-.41,3.95.78,1.97.8,4.17,0,6.14.55,1.11.55,2.24,0,3.35.57,1.52.75,3.15.56,4.91l-.56.39-.6.17c-1.35-1.28-3.2-2.42-5.13-2.21l-.41-.47-.56-.19-.04-27.31c-7.63.06-12.49-5.66-12.98-12.94h-27.36s-.34-.56-.34-.56l-.38-.71c.51-2.1.5-4.3.2-6.43l.46-.67h44.34Z"/>
    <path class="cls-55" d="M30.12,123.84l1.03-.26c4.99,1.2,10.11,1.61,15.34,1.23,5.65-.22,10.81,1.57,15.31,4.93,6.12,4.75,11.25,8.38,19.33,8.77,9.97.49,16.05-3.81,23.3-9.61,1.14-.89,2.22-1.19,3.22-.87.94.53,1.22,2.23.56,3.07-6.11,1.78-8.94,7.23-14.59,9.81-6.89,3.14-15.35,3.43-22.23.1-5.09-2.47-8.32-7.23-13.94-9.49-9.5-3.81-17.4-.4-26.55-2.73-17.44-4.46-26.68-22.97-23.92-40.08.63-.31.82-.02.87.6-.92,10.54,2.94,21.03,11.2,27.83l.55.93c3.06,1.96,6.29,3.59,9.69,4.9l.84.88Z"/>
    <path class="cls-7" d="M37.09,20.37c9.2-.04,18.41.03,27.61,0l.44.8c-.29,2.07-.09,4.16.46,6.16l-.35.85-.19.56h-26.4c-.28,4.05-1.21,8.04-4.72,10.64-1.36,1.01-3.98,2.51-5.5,1.63l-.04-19.9c-.09-.36-.34-.4-.66-.46-.99-.18-4.62-.12-5.72,0,1.6-.45,3.77-.36,5.46-.3.48.02.98.3,1.1.3h5.3c.78,0,2.11-.27,3.21-.28Z"/>
    <path class="cls-36" d="M19.52,85.63c0,10.64,0,21.29,0,31.93.23,1.13,2.32.68,3.35.7l.6.27c.87,2.1,1.63,2.22,2.71.23,1.88-.1,3.75-.27,5.62-.49.37,0,.74,0,1.12,0,1.74.14,1.27,1.31.32,2.35-1.33.96-2.34,1.84-3.11,3.23-14.73-4.83-23.91-18.02-22.85-33.6.03-.44.13-1.27-.3-1.54.36-2.24.95-4.66,1.95-6.69l.32-.52c3.06,1.57,6.25,2.74,9.58,3.51l.7.64Z"/>
    <path class="cls-57" d="M123.27,105.99c.8,1.01.78,4,0,5.02.63.74.95,1.71.97,2.91.58,1.58.72,3.02.43,4.34,1.27,5.36,3.04,9.54,5.3,14.5-.18.18-.42.32-.64.21-1.93-1.36-10.12-5.17-11.95-3.82-1.49,2-2.82,4.12-3.99,6.35-.87,1.01-1.61.25-1.96-.76-2.3-7.44-3.65-15.54-2.48-23.36,4.47-2.04,9.02-3.94,13.65-5.72.18.18.41.29.69.32Z"/>
    <path class="cls-57" d="M155.34,111.56l-.57.52c-2.87-.63-5.77-1.09-8.72-1.37l-.71,3.94-.6.26.35.16c-.49,3.27-.73,6.58-.74,9.91,1.06.42,1.34,1.86.11,1.92-1.83-2.92-3.68-5.79-5.58-8.65l-.88-.31c-1.43-2.17-2.91-4.31-4.62-6.28l-.08-.94c-2.16-1.34-4.55-3.66-6.3-5.63-.34-.38-.53-.86-.67-1.34l.03-.61c4.43-1.83,8.87-3.65,13.31-5.48l.89.24c.12-.62.54-.53,1-.19,4.61,3.41,9.17,8.13,13.09,12.34.18.19.29.44.41.69s.21.54.28.82Z"/>
    <path class="cls-24" d="M146.14,71.68c.99-.29,2.63,2.95,2.84,3.8.1.4.09.83-.05,1.22.36-.19.55.18.56,1.12.1.26.19.57.28.84,1.46,1.2,1.65,4.52,1,6.2l-.17,3c1.02.95-.62,2.61-1.56,3.22s-6.81,3.39-7.64,3.44l-.85-.24c-.27,1.03-1.86,1.61-2.79,1.12-1.91,1.77-4.93,2.91-7.53,3.07-.99.25-2.2-.96-1.95-1.95l.03-.61,15.3-6.1c-2.37-2.51-4.53-5.74-5.65-9.22.38-.18.47-.45.36-.8-.95-.09-1.11-2.16-.28-2.51l-.57-.4c-.16-1.83,0-5.99,1.69-6.86-.46-.69.15-1.31.84-.84,1.94-.62,4.88,1.07,6.14,2.51Z"/>
    <path class="cls-21" d="M122.71,101.8l.53.33c-.22,1.28-.21,2.47.02,3.58.25.05.24.15,0,.28l-13.9,5.62c-.81,6.86.03,14.09,1.93,20.71.31,1.07.5,2.41,1.23,3.22.62,0,3.28-6.36,4.89-7.1,2.08-.95,10.59,2.65,12.55,4.32.39.84,1.62,2.02,1.26,3.06-4.05-1.87-8.23-3.75-12.69-4.33-3.16,3.6-4.91,8.3-5.72,12.98-1.88-4.25-3.57-8.84-4.6-13.39-.22-.98-.38-2.07-.56-3.07-1.43-2.78-1.91-7.01-1.12-10.04l-.57-.36c-.18-2.76-.19-5.53-.03-8.29l.6-.28c.1-.32.14-.61-.19-.87,4.94-2.33,10.18-4.65,15.33-6.77.49-.2.83-.19,1.03.39Z"/>
    <path class="cls-36" d="M158.13,81.16c.24,1.21.43,2.39.56,3.63.06,6.71-.8,13.63-4.2,19.67-.45.74-.87,1.36-1.65.69-.65-.28-1.3-.58-1.83-1.06-3.05-2.73-6.1-5.42-9.18-8.12-.54-.47-.91-1.09-1.26-1.7,2.25-.98,6.25-2.47,8.19-3.67,1.1-.68,1.55-1.54,1.85-2.75.05-1.32.15-2.63.32-3.94,2.25-.84,4.42-1.86,6.54-3.02l.67.26Z"/>
    <path class="cls-7" d="M138.89,118.26h-14.22c-.56-2.38-1.22-4.78-1.39-7.25.05-.22.14-.54.31-.57,1.31-.17,7.65-.45,8.64-.24l1.09.53c2.33,2.61,3.67,4.67,5.58,7.53Z"/>
    <path class="cls-16" d="M140.56,94.27c4.32,3.35,8.47,6.96,12.27,10.88.92-.22,2.28,1.01,1.95,1.95.89.97,1.67,2.06,2.51,3.07,1.23,1.53-1.73,3.24-1.95,1.39-4.57-4.72-8.88-9.35-14.09-13.39-.25-.2-.61-.2-.69-.27-1.09.2-3.02-1.44-2.79-2.51.93-.4,1.91-.73,2.79-1.12Z"/>
    <path class="cls-27" d="M8.92,82c-.24-.14-.82-.77-1.31-1.06-.58-.34-3.18-1.3-1.93-1.76,4.6-1.67,10.22-1.16,13.7,2.54.37-.58.09-1.37-.14-1.95.08-.24.17-.24.28,0-.02,1.86,0,3.92,0,5.86-3.69-.33-6.6-1.83-9.76-3.5-.27-.14-.71-.06-.83-.13Z"/>
    <path class="cls-52" d="M19.52,40.45c-.63-1.61-.81-3.39-.54-5.35-1.14,2.05-2.56,3.87-4.24,5.45l-.8-.1c-.22.45-.5.63-.84.56.07-1.21-.3-2.19-.29-3.19.04-2.71,1.87-6.93,3.4-9.17.62-.9,2.94-3.05,3.16-3.54.28-.62.15-1.59.42-2.51-.06,2.85-.32,5.66-.29,8.52s.61,5.86.31,8.66c-.04.4-.01.39-.3.67Z"/>
    <path class="cls-45" d="M150.88,74.47c.68-.84,3.36-2.75,4.38-3.29,2.76-1.49,6.18-2.24,9.29-1.87-4,4.26-8.66,8.81-15.06,7.95-.33-.65.56-2.94,1.39-2.79Z"/>
    <path class="cls-44" d="M16.45,75.59c.82-.44,1.65,1.01,1.12,1.67-6.63.86-11.94-3.43-16.17-7.95,5.44-.4,11.39,2.29,15.06,6.28Z"/>
    <path class="cls-41" d="M155.34,111.56c.26.01.49.43,1.1.15.5-.23.95-.98.85-1.54,1.56,1.88,3.3,3.67,4.46,5.85-4.27-1.09-8.11-2.16-12.55-2.51-.71.19-1.15.63-1.34,1.32l-.62.35c-.23.84-2.39.56-2.51-.28.11-.71.59-4.64,1.01-4.76,1.84.04,3.66.34,5.47.66,1.51.26,2.64.68,4.13.75Z"/>
    <path class="cls-45" d="M12.55,65.27c.88.1,1.5,2.19.84,2.79-5.96-.76-9.84-5.56-13.39-9.9,5.22-.23,9.25,3.52,12.55,7.11Z"/>
    <path class="cls-37" d="M153.95,48.53c-.69-.23-.96-2.34-.28-2.79,1.01-4.24,3.46-7.9,7-10.43.21-.15,1.3-1.11,1.36-.31.02.32-.9,3.61-1.1,4.2-1.14,3.42-3.52,7.92-6.98,9.33Z"/>
    <path class="cls-45" d="M11.99,45.75c.79.51.42,2.36-.28,2.79-4.97-2.77-7.34-8.52-8.08-13.94,4.07,2.54,7.27,6.41,8.36,11.16Z"/>
    <path class="cls-48" d="M11.43,56.06c.64.17.82,1.85.28,2.23-5.66-1.74-8.66-6.57-11.15-11.58.1-.33.61-.08.85-.01,3.84,1.06,8.89,5.46,10.03,9.36Z"/>
    <rect class="cls-60" x="46.74" y="57.41" width="73.95" height="33.01"/>
    <path class="cls-48" d="M153.39,65.55c1.93-4.04,7.46-7.56,11.99-7.39-3.2,4.27-6.87,8.86-12.55,9.62-.63-.3-.07-2.36.56-2.23Z"/>
    <path class="cls-27" d="M151.71,34.59c.84,2.7.17,3.61.28,5.86-.02.22-.03.34-.28.28l-.62.03c-1.88-1.72-3.28-3.55-4.43-5.84l-.53-.05c0-2.79,0-5.58,0-8.37,1.56.23,3.25,2.7,4.17,4.11.67,1.02,1.31,2.05,1.73,3.2l-.32.77Z"/>
    <path class="cls-45" d="M154.5,56.34c1.7-4.88,5.38-8.79,10.6-9.76-2.36,4.83-5.51,9.45-10.6,11.71-.55-.64-.55-1.32,0-1.95Z"/>
    <path class="cls-52" d="M149.76,78.65c3.65-1.01,7.05-.6,10.6.56.11.49-.14.55-.46.79s-1.43.96-1.77,1.16c-1.41.81-3.59,1.84-5.11,2.56-.73.34-1.98.33-2.14,1.2-.19.99.04,1.7-.28,2.93.07-3.2.13-6.12-.84-9.2Z"/>
    <path class="cls-46" d="M146.14,22.04c2.97,2.25,6.9,7.09,7.75,10.81.34,1.47-1.17.95-2.17,1.74-.93-2.98-3.46-5.87-5.58-8.09v-4.46Z"/>
    <path class="cls-32" d="M13.94,40.45c.6,1.62-.04,3.99-.84,5.58.82.35.24,2.28-.56,2.51l.47.96c0,2.43-.25,4.8-.75,7.12.86.19,1.02,1.48.28,1.95l.65.88c.46,2.49.8,4.99,1.02,7.49.71.11.9,1.02.28,1.39.8.69,1.36,1.67,1.7,2.92.91,1.4,1.46,2.84,1.65,4.33.94.29,1.5,1.22,1.67,2.79,0,.46,0,.93,0,1.39h-.28c-.25-.62-1.23-1.87-1.67-2.51s-.46-.95-1.12-1.67c-1.04-2.52-2.26-4.92-3.07-7.53-.27-.86-.65-1.96-.84-2.79-.53-2.39-.56-4.63-.84-6.97-.08-.63-.12-1.68-.28-2.23-.07-2.54,0-5.02.28-7.53.1-.85.15-1.91.28-2.79.2-1.4,1.02-3.12,1.12-4.74.13-.56.71-.47.84-.56Z"/>
    <path class="cls-54" d="M147.25,115.19c.42.28.42.84,0,1.67-.71,3.97-1.34,7.95-1.68,11.99-.59-.28-1.05-1.33-1.11-1.95-.02-.22.32-.67.24-.95-.09-.34-.7-.35-.89-.78-.57-1.3.63-8.4.93-10.26l2.51.28Z"/>
    <path class="cls-5" d="M153.67,45.75c.14.72.17,1.93.28,2.79.33,2.48.58,5.3.56,7.81,0,.65,0,1.3,0,1.95l-1.12,7.25c-.3.62-.37,1.6-.56,2.23-.67,2.22-1.18,4.5-1.95,6.69-.33.4-1.3,2.27-1.39,2.79-.03.17.02.38,0,.56-.11-.3-.39-.75-.56-1.12-.19-.84,0-1.3.56-1.39.51-2.41,1.11-4.81,1.78-7.19l.73-.62c-.67-.54-.29-1.91.56-1.95-.2-2.37-.29-5.49.84-7.53-.8-.34-.44-1.11.28-1.39-.5-2.41-.84-4.85-1.01-7.31l.45-.77c-.79-.6-1.36-2.41-.56-3.07-.65-1.34-1.61-3.45-.84-4.74l.28-.28c.05.99,1.42,4.01,1.67,5.3Z"/>
    <path class="cls-33" d="M154.78,107.1c-.57-.62-1.35-1.33-1.95-1.95.77-.04,1.23-1.07,1.55-1.66,2.13-3.96,3.64-10.46,4.03-14.94.1-1.21-.3-2.67.28-3.76.61,6.1-.27,12.75-2.22,18.56-.43,1.28-1.05,2.57-1.68,3.75Z"/>
    <path class="cls-34" d="M149.2,113.52l-1.95,3.35c.09-.5-.09-1.17,0-1.67.12-.67.54-1.23.58-1.92.5-.32,1.17.23,1.37.25Z"/>
    <path class="cls-60" d="M65.26,28.18l.69.34c1,2.83,2.64,5.47,4.84,7.53l.04.77c.42.5.22,1.51-.56,1.39l.09.69c-1.19,2.76-2.3,5.54-3.32,8.33,1.95-.65,3.88-.88,5.77-.69,1.03,1.84,1.87,3.79,2.51,5.83l4.18-9.51c.28-.42.65-.76,1.09-1.01-.68-.42-.5-.81.28-.84-.54-1.28,1.92-1.55,1.95-.28.65.06,1.44,1.17.84,1.67l.89.61c1.2,3.26,2.68,6.34,4.47,9.27l2.39-5.74c.69-.51,1.87-.4,1.73.6l.55.2-.21,10.68,19.97.26.33.56c-6.96.76-13.96.78-20.92,0-1.94.3-3.89.48-5.86.55l-34.97.07c-.36,1.03.76,1.39,3.38,1.06l.36.56c19.5.41,38.8.15,57.89-.78l.4.5c.11.92-2.12,1.46-2.37.56l-.26.56h-18.23l-.34-.56c.21.03.5.08.56.25.07.21.06,4.02,0,4.37l-.56.4c-12.36.04-24.73.04-37.09,0,0,.26-.11.45-.33.56l-2.26-.03c-1.38-.09-1.63.48-.75,1.7,13.49.06,26.97.15,40.44.28.55.07.74.58.56,1.51.08,1.02.26,3.38-.56,3.79-13.73.02-27.21.12-40.44.28-1.77,2.08,1.84,1.66,3.31,1.39,10.68-.1,21.4-.07,32.1,0,.89,0,1.77.1,2.66.19s1.77.23,2.66.37c6.96-.78,13.96-.76,20.92,0l-.25.56-20.2.26c-.34.18-.26,3.51-.05,4.21l-.42.54c-.05.25-.15.24-.28,0-13.18.58-26.37.76-39.55.55-.86.06-2.07.23-1.16,1.12,13.07.37,26.33.43,39.78.2l.92.37.41-.56c3.65.41,7.13.28,10.45-.38-.04-.52.05-.95.29-1.3.6-.94,4.2-.96,4.46.28-.47,1.11-2.65,2.05-3.88,2.51-1.01.64-1.85.74-2.54.28-.21-.29-.12-.32.19-.37-2.87.42-5.8.55-8.79.36l.21,3.2-.53.42c-.5,1.17-1.93,1.43-3.07,1.12-.24.25-.49.49-.77.71s-.54.4-.84.53c-3.88,1.65-7.83,3.29-11.74,4.86-.63.25-1.32.29-1.99.32.06.24.08.55-.1.65-1.99,1.1-2.28,1.31-2.26,4.08.02,3.25,1.12,6.41,2.39,9.36l-.3.69h-36.26c1.58-7.72-4.99-14.54-12.83-12.55l-.28-57.17c1.18.18,2.25-.11,3.35-.28,6.64-1.03,9.84-6.3,9.48-12.83h27.33Z"/>
    <path class="cls-36" d="M79.2,117.98c.44-.4,1.16-.3,2.15.28.82-.47,1.4-.56,1.76-.28.35-.47.54-.47.56,0,3.2-.46,6.61-.53,10.22-.2,4.26-.26,8.47-.19,12.65.2.13,3.32.53,6.77,1.12,10.04-5.22,1.73-8.03,6.1-12.96,8.37-6.07,2.8-12.66,3.43-19.17,1.87-10.01-2.41-14.82-11.95-25.73-12.76-7.4-.55-12.18.79-19.67-1.66-.58-2.23,3.03-2.99,3.36-4.62.12-.57-.14-.71-.57-.95,14.69.04,29.27-.13,43.94,0,.56,0,2.23-.31,2.35-.29Z"/>
    <path class="cls-24" d="M74.74,96.23c1.84-.6,3.55.8,4.82,2.04,2.85,2.77,4.64,7.19,5.41,11.04l-.47.59.12,3.6c.66,1.14-.12,3.93-1.52,4.49-.45.12-.83.78-1.55.83-.93.07-1.73-.74-2.35-.83-2.14-2.07-3.5-4.28-4.74-6.97-1.59-3.44-3.49-8.97-2.24-12.7.59-1.75,1.3-1.49,2.52-2.08Z"/>
    <path class="cls-45" d="M19.52,49.09c.03,2.62.56,6.12.3,8.53-.04.4-.01.39-.3.67l-.57-.52c.02-.32.07-2.72-.06-2.64-1.57,1.49-3.37,2.7-5.33,3.61l-1-.17c-.06-.63-.25-1.5-.28-1.95.37-2.61,2.21-4.72,4.14-6.41.65-.57,2.4-1.72,3.11-1.12Z"/>
    <path class="cls-26" d="M19.52,69.45c-.43-1.16-.66-2.37-.71-3.64l-1.77,1.55c-.88.94-1.73,1.26-2.54.98-.15-.53-.33-.73-.28-1.39-.87-2.21,2.83-8.41,4.75-8.93l.55.29c.14,3.24.32,6.37.28,9.63,0,.47.18,1.24-.28,1.53Z"/>
    <path class="cls-38" d="M19.52,49.09c-.51-.93-.71-1.98-.6-3.15-1.63,1.47-3.53,2.74-5.75,3.08l-.63-.49c.07-.67.46-1.84.56-2.51.43-1.57,1.28-2.51,2.41-3.63.78-.77,3-2.2,4-1.95.07,2.51.57,5.54.29,7.97-.04.34.06.47-.29.67Z"/>
    <path class="cls-36" d="M31.79,118.26c-1.17,1.19-3.43.18-4.83.61-.74.23-1.06,1.87-2,1.89-1.06.03-2.08-1.52-2.1-2.5,2.97.05,5.96,0,8.92,0Z"/>
    <path class="cls-58" d="M19.52,78.38c-.72-.83-1.14-1.84-1.67-2.79.65-1.89.28-4.26,1.67-5.86.03,2.89,0,5.85,0,8.65Z"/>
    <path class="cls-30" d="M99,20.37c.43,2.39.47,5.47-.28,7.81.11.09.21.18.3.29.54.69-3.84,7.22-4.95,7.97l-.64-.17c.03.15.05.31.04.46-.09,1.28-9.41,5.02-10.32,4.33-.12-.09-.22-.2-.32-.32-.27.04-1.19-.73-1.95.28-2.8-.1-6.94-1.26-9.82-3.31l-.22-.87c-2.44-1.99-4.72-5.67-5.58-8.65-.79-2.74-1.04-4.97-.56-7.81,3.17-18.79,30.9-18.84,34.3,0Z"/>
    <path class="cls-60" d="M98.73,28.18h28.45c-.11,6.44,3.67,11.85,10.21,12.8.76.11,2.33-.26,2.58.49l.04,27.71c-.06.02-.81.78-.84.84l-.59.56c-5.2,2.07-10.41,4.13-15.62,6.2l-.8-.07c-4.05,2.63-8.95,4.55-13.67,5.58-1.34-.49-3.01-.27-4.46-.28-3.61.75-7.27.77-10.88,0-.6-1.64-.14-3.57-.28-5.3l21.2-.28-.23-.32c.25-.96.18-1.06-.82-1.35-6.74.23-13.46.04-20.15-.57v-5.3l1.13-.58c4.95-.39,9.88-.27,14.8.13,3.22.58,8.89-.9,2.2-1.67-5.74-.14-11.47-.09-17.21.16l-.92-.56v-5.02h18.83c.32,0,1.96-.37,2.37-.56-.14-.67-.23-1.33-.28-1.95l-20.92-.28.28-11.44c1.3-.39,2.74-.34,4.31.15-1.08-2.98-2.26-5.95-3.55-8.91l.08-.72c-.84,0-1.04-.78-.56-1.39,1.78-1.57,4.58-5.84,5.3-8.09Z"/>
    <path class="cls-45" d="M153.67,56.62c-.02.66-.26,1.15-.28,1.39l-.61.4c-2.29-1.06-4.3-2.57-6.03-4.55.12,1.29-.08,2.3-.61,3.03-.19-.21-.35-.3-.3-.67.14-2.95.27-5.86.3-8.81l.84-.05c3.27,2.41,6.29,5.05,6.69,9.25Z"/>
    <path class="cls-44" d="M152.55,65.55c-.18.89-.41,1.38-.56,1.95-.14.17-.35.4-.5.35-1.66-.66-4.76-3.17-5.36-4.81,0-2.04-.03-4.1,0-6.14.63-.32,1.65.42,2.18.86,2.31,1.89,4.18,4.71,4.24,7.79Z"/>
    <path class="cls-51" d="M152.55,45.47c.24,1.15.39,1.88.56,3.07l-6.97-3.35c.01-1.86,0-3.72,0-5.58l1.01.04c2.11,1.32,4.63,3.44,5.41,5.82Z"/>
    <path class="cls-44" d="M149.48,75.31c-.04.47-.2,1.06-.56,1.39-.56-1.28-1.93-4.03-2.79-5.02v-5.3c2.06,2.13,3.6,5.96,3.35,8.92Z"/>
    <path class="cls-36" d="M125.78,103.48c.38-.64.63-.46.56.28,2.46,2.12,4.81,4.55,6.97,6.97l-10.04.28c-.11-1.5-.08-3.5,0-5.02,0-.09,0-.19,0-.28-.53-.14-.32-1.35.28-1.39.2-.96,1.4-1.37,2.23-.84Z"/>
    <path class="cls-17" d="M137.77,95.39c.82.79,1.91,1.82,2.79,2.51l-14.22,5.86c-.14-.12-.41-.16-.56-.28-.97.21-1.93-.7-1.95-1.67-.4.39-.64.28-.56-.28,1.8-1.7,4.5-2.95,6.97-3.07,2.48-1.06,5.06-2,7.53-3.07Z"/>
    <path class="cls-57" d="M122.15,76.7c.69-.3,1.04-.26,1.06.13-.41,2.01-.59,4.05-.51,6.11-.5.53-.59,1.19-.27,1.85.78.1,1.04,1.36.28,1.67l.74.72c.81,3.12,2.48,5.95,4.65,8.31l.19,1.01c.64.66,1.23,1.35,1.95,1.95-2.29.98-4.64,2.08-6.97,3.07.18.54-.1.65-.56.28-.17.07-.54,0-.83.13-4.95,2.1-9.82,4.39-14.86,6.29-.14.09-.47.72-.49.83-.66-.02-.12-.22-.12-.19-.07.71-5.31,2.78-6.57,2.42l-.52-.49c.48-1.9.65-3.78.52-5.65l-.61-.66c-.24-2.09-.96-4.08-1.83-5.99l.21-.88-.23-.83c7.44-3.52,15.11-6.71,23-9.58l-.32-1.59-23.61,9.33-.52-.39-.75-.06c-1.46-1.72-3.01-3.05-5.05-4l-.05-.67c.99-.4,2.05-.71,3.07-1.12l.26-.7c.9-.43,7.83-3.17,8.27-3.12.13.01.26.1.39.2,2.29-.5,4.33-1.9,6.41-2.79,4.48-1.9,9.14-3.7,13.67-5.58Z"/>
    <path class="cls-20" d="M138.33,79.77c.59,2.46,2.66,6.16,4.32,8.09l2.09,2.08-16.45,6.56c-2.75-2.81-4.75-6.13-5.58-10.04l.88-.7c4.97-2.04,9.88-4.04,14.74-5.99Z"/>
    <path class="cls-50" d="M139.16,70.01c-1.01,1.81-1.23,5.2-1.12,7.25l-.18.67-14.91,5.89c.04.49.03.76-.52.96-.46-.29-.28-1.06-.28-1.53-.03-2.13-.03-3.68.38-5.77.1-.52.53-.9-.37-.79,4.98-2.07,10.51-4.6,15.51-6.38.5-.18.93-.42,1.5-.31Z"/>
    <path class="cls-40" d="M138.05,77.26c.04.76.11,1.78.28,2.51.14.64-.32.6-.73.79-4.82,2.23-9.89,4.15-14.89,5.9-.13-.6-.26-1.02-.28-1.67-.01-.38-.16-1.16.17-1.42l15.45-6.11Z"/>
    <path class="cls-6" d="M106.53,109.05c-.33,2.07-.09,6.64,0,8.92-6.51.36-13.13.43-19.68.29-1.1-.02-2.03-.39-3.19-.29,4.9-3.1,10.53-5.38,16.18-6.69,2.04-.82,4.04-1.56,6.05-2.46.49-.22.72-.7.64.23Z"/>
    <path class="cls-56" d="M123.83,101.8c.6.71.58,2.04-.28,2.51-.06.5-.26,1.13-.28,1.39-.16-.02-.52.05-.56,0-.17-.23.12-3.26,0-3.91.19-.08.37-.2.56-.28.18.1.39.17.56.28Z"/>
    <path class="cls-20" d="M90.08,89.81l2.93,1.67c.95,1.03,2.11,1.92,2.93,3.07.24.09.24.19,0,.28l-.04.61-13.25,5.04c.29.69.67,1.39,1.22,1.9l12.95-5.43.52.39c.27-.41.36-.31.28.28,1.11,2.37,2.09,4.89,2.23,7.53.34,1.28.27,2.42-.2,3.43l-14.33,5.74c-.27.06-.51,0-.73-.16l-.08-4.27c-.76-5.05-4.21-12.72-9.76-13.67,4.96-2.38,10.23-4.38,15.34-6.41Z"/>
    <path class="cls-30" d="M93.98,37.66c1.56,3.39,3.28,6.8,4.46,10.32-1.78-.2-3.53-.56-5.3-.84-.27-.04-.81-.58-1.36-.24l-2.69,6.65c-2.44-3.39-3.71-7.41-5.44-11.15l.71-.69c3.16-.64,6.62-1.65,8.92-3.93l.7-.12Z"/>
    <path class="cls-24" d="M80.6,41.84c-1.49,3.08-2.73,6.47-4.22,9.58-.14.3-.9,2.32-1.35,1.85-.24-.86-2.19-6.07-2.5-6.29-.71-.49-5.29.88-6.42.99,1.08-3.37,2.7-6.59,4.18-9.76l.72-.09c2.49,2.07,5.73,3.6,9.03,3.26l.56.46Z"/>
    <path class="cls-12" d="M93.15,88.7l-.28-4.18h9.76c.06.31-.33.41-.56.56-2.15,1.4-6.4,2.62-8.92,3.63Z"/>
    <path class="cls-13" d="M93.43,36.26c.33.4.37.99.56,1.39-.46,1.25-2.91,2.44-4.12,2.99-2.01.91-4.03,1.4-6.2,1.75-.21-.46-.88-.95-.84-1.67,3.22-.51,8.12-2.29,10.6-4.46Z"/>
    <path class="cls-22" d="M70.84,36.82c2.5,2.04,5.96,3.08,9.08,3.62.52.09,1.12-.31.96.56-.05.07-.16.59-.28.84-3.41.75-7.84-1.28-10.32-3.63.19-.4.08-1.06.56-1.39Z"/>
    <path class="cls-39" d="M99.84,111.29c-5.41,2.17-10.83,4.36-16.18,6.69-.18.01-.42-.04-.56,0,1.46-2.52,1.51-5.24,1.39-8.09.19,1.28.13,2.32.28,3.49.05.38-.15.49.41.4l14.48-5.82c.31-.24.2-2.26.17-2.82.7,1.94.12,4.17,0,6.14Z"/>
    <path class="cls-1" d="M80.26,9.85c20.09-2,20.39,28.61-.36,26.69-15.17-1.41-15.91-25.07.36-26.69Z"/>
    <path class="cls-11" d="M125.78,103.48l-2.23.84c.09-.81.03-1.68.28-2.51.79.52,1.3,1.13,1.95,1.67Z"/>
    <path class="cls-3" d="M95.94,94.55l24.53-9.75.55,2.76c-7.1,2.86-14.34,5.56-21.36,8.62-.55.24-2.11.73-2.04,1.44-.04-.09-.23-.17-.28-.28-.83.14-1.88-1.87-1.39-2.51-.04-.06.04-.22,0-.28Z"/>
    <path class="cls-9" d="M95.94,94.83c.66.95.9,1.52,1.39,2.51l-13.31,5.54c-.79.4-2.18-2.54-2.03-2.75l13.94-5.3Z"/>
    <path class="cls-24" d="M82.22,11.24c11.96-.77,16.82,17.82,4.79,22.66-17.72,7.12-24.4-21.39-4.79-22.66Z"/>
    <path class="cls-25" d="M88.33,16.5c2.15-.57,3.79,5.44,3.72,7.06-.05,1.12-.48,2.23-1.79,1.79-.76-.25-.37-2.89-.58-3.89-.27-1.3-1.91-3.28-1.99-4.15-.04-.4.31-.73.64-.82Z"/>
    <path class="cls-25" d="M82.47,12.89c1.37-.42,5.79,1.16,4.98,2.73-.26.49-.88.63-1.39.56-.21-.03-3.71-1.58-3.89-1.71-.74-.56-.5-1.34.3-1.58Z"/>
  </g>
  <g>
    <path class="cls-29" d="M58.59,54.16c.58.17.54,2.35,0,2.62-.17.58-2.35.54-2.62,0,.09,0,.17,0,.24.04.17.08.18,2.35-.07,2.59.8.02,1.56.11,2.3.25l.06,2.28c-.86-.03-1.7,0-2.54.1-.16.86-.15,1.76,0,2.62.87.07,1.75.13,2.62.17.67.16.44,2.03,0,2.45h-5.25v-13.12c1.75.02,3.5-.02,5.25,0Z"/>
    <path class="cls-42" d="M105.81,56.26c-.72,1.31-2.74,1.14-2.81-.44-.08-1.79,2.21-1.95,2.81-.43v.87Z"/>
    <path class="cls-42" d="M86.05,66.05v3.58c0,.83-2.16,1.37-2.44-.36.25-3.14-.37-6.9-.01-9.96.2-1.68,2.07-1.8,2.54-.26,2.06-2.22,5.46-1.3,6.3,1.57,1.34,4.58-2.14,8.62-6.38,5.42Z"/>
    <path class="cls-42" d="M81.15,63.26c-1.88-.17-3.74-.17-5.6,0-.41,1.18,1.53,2.13,2.53,2.1.76-.02,2.69-1.19,3.03-.06.35,1.15-.93,1.55-1.85,1.76-3.92.89-7.3-2-6.04-6.04s7.12-4.32,8.53-.2c.28.81.58,2.26-.61,2.44Z"/>
    <path class="cls-42" d="M99.12,64c-.38-.36-2.77-.67-3.58-1.06-3.01-1.44-1.38-4.97,1.78-5.11.92-.04,4.58.53,3.6,2.03-.79,1.22-2.98-1.01-4.31.06-1.43,1.16,1.88,1.52,2.37,1.67,1.36.41,2.65,1.13,2.6,2.78-.08,3.02-4.71,3.35-6.75,2.24-.91-.5-1.41-1.7-.23-2.07.73-.23,2.82,1.53,4.27.61.38-.24.58-.84.24-1.16Z"/>
    <path class="cls-28" d="M63.84,59.41h2.45c-.01,1.75.01,3.5,0,5.25l-.15.35h-1.95s0,2.03,0,2.03l-.35.24c-1.75.02-3.5,0-5.25,0-.12-.63.17-1.93,0-2.45.72-.18,1.52-.25,2.4-.21.08-.83.19-1.66.35-2.47l.58-.11c.26-.34.79-.46,1.58-.37v-2.05s.34-.21.34-.21Z"/>
    <path class="cls-10" d="M58.59,54.16c.49,0,2.34-.13,2.55.16.25.36-.03,1.92.08,2.46.12.12,2.07-.13,2.45,0,.1.55.25,2.7-.07,3-.17.16-4.08-.01-4.61-.05l-.22-.33-.17.17c-.77-.05-1.58-.11-2.45-.17-.41-.41-.06-1.99-.17-2.62h2.62v-2.62Z"/>
    <path class="cls-42" d="M104.01,58.04c.95-.21,1.52.36,1.63,1.27.16,1.31.16,5.17-.02,6.46-.25,1.78-2.23,1.79-2.44.02-.15-1.29-.18-5.58.01-6.81.08-.48.32-.83.81-.94Z"/>
    <polygon class="cls-4" points="69.26 51.01 69.26 56.26 66.64 56.26 66.64 53.64 64.01 53.64 64.01 51.01 69.26 51.01"/>
    <path class="cls-35" d="M63.84,59.41c0,.49.1,2.21-.08,2.46-.2.29-1.41.15-1.85.16-.76.22-1.03,1.07-.82,2.53-.83.12-1.72.23-2.5-.08-.56-.17-.54-2.06,0-2.27-.16-.03-.15-.09,0-.17.04-.88.1-1.75.17-2.62.74-.14,4.72.17,4.9,0v-2.62c.3.1.18,2.14.17,2.62Z"/>
    <path class="cls-14" d="M66.29,64.65c0,.87,0,1.75,0,2.62-.81,0-1.64,0-2.45,0v-2.62s2.45,0,2.45,0Z"/>
    <path class="cls-31" d="M81.15,63.26c-1.63.26-3.89-.19-5.6,0,.09-.26.23-.16.43-.18,1.17-.14,2.97-.01,4.21,0,.3,0,.78-.11.96.18Z"/>
    <path class="cls-43" d="M58.59,59.58c.09.76.16,1.66,0,2.45-.88.05-1.71.12-2.52.21l-.11-.21c.4-.4,1.84-.07,2.45-.17-.09-.49.16-1.77-.08-2.11-.31-.44-1.73.12-2.2-.34.8.06,1.71-.17,2.45.17Z"/>
    <path class="cls-15" d="M58.59,64.83c-.58,0-2.31.14-2.62-.17l.19-.3c.74.21,1.56.3,2.46.26l-.03.21Z"/>
    <path class="cls-47" d="M55.97,64.65c-.28-.28-.3-2.32,0-2.62.4.06.48.18.08.24-.09.79,0,1.39.17,2.14.03.14-.08.22-.25.24Z"/>
    <path class="cls-60" d="M87.57,59.97c3.35-.58,3.61,4.97.61,5.16-.6.04-2.03-.49-2.14-1.09-.07-.37-.06-2.8.03-3.12.12-.38,1.1-.89,1.49-.95Z"/>
    <path class="cls-60" d="M79.75,61.68h-4.37c.5-2.59,4.05-2.65,4.37,0Z"/>
    <path class="cls-2" d="M58.59,62.03c0,.06,0,.12,0,.17l-.15.35h-1.94c-.41,1.43.21,1.96,1.87,1.57l.23.35c.81,0,1.64,0,2.45,0v-2.45c.29,0,.58.01.87,0-1.24.2-.35,2.37-.86,2.72-.81.15-1.64.07-2.46.08-.12-.38-2.14-.08-2.62-.17v-2.62c.12-.12,2.22.13,2.62,0Z"/>
    <path class="cls-8" d="M58.59,62.03c0-.69-.11-1.85,0-2.45.02-.13.04-.15.17-.17-.09.49.2,2.5-.17,2.62Z"/>
    <path class="cls-18" d="M58.59,62.21v2.27c-2.33-.03-2.65.54-2.45-2.27h2.45Z"/>
  </g>
  <text class="cls-53" transform="translate(40.27 108.21)"><tspan x="0" y="0">2022/20</tspan><tspan class="cls-49" x="21.19" y="0">2</tspan><tspan x="24.13" y="0">4</tspan></text>
  <text class="cls-23" transform="translate(51.78 79.26)"><tspan x="0" y="0">Master Bac +5</tspan></text>
</svg>